# Blender 4.1.1
# www.blender.org
mtllib holder.mtl
o Hodlder
v -1.306755 -2.852974 -1.306755
v -1.536581 -2.852974 -1.026711
v -1.707358 -2.852974 -0.707211
v -1.812521 -2.852974 0.360533
v -1.536581 -2.852974 1.026711
v -1.026711 -2.852974 1.536581
v -0.707211 -2.852974 1.707358
v 0.360533 -2.852974 1.812521
v 1.707357 -2.852974 0.707211
v 1.848031 -2.852974 -0.000000
v 1.812521 -2.852974 -0.360533
v 1.707357 -2.852974 -0.707211
v -0.000000 -2.852974 -1.848031
v -0.360533 -2.852974 -1.812521
v -0.707211 -2.852974 -1.707358
v -1.026711 -2.852974 -1.536581
v -1.812521 -2.852974 -0.360533
v -1.848031 -2.852974 -0.000000
v -1.707358 -2.852974 0.707211
v -1.306755 -2.852974 1.306755
v -0.360533 -2.852974 1.812521
v -0.000000 -2.852974 1.848031
v 0.707211 -2.852974 1.707358
v 1.026711 -2.852974 1.536581
v 1.306755 -2.852974 1.306755
v 1.536581 -2.852974 1.026711
v 1.812521 -2.852974 0.360533
v 1.536581 -2.852974 -1.026711
v 1.306755 -2.852974 -1.306755
v 1.026711 -2.852974 -1.536581
v 0.707211 -2.852974 -1.707358
v 0.360533 -2.852974 -1.812521
v -0.000000 -2.127875 -0.382041
v -0.074533 -2.127875 -0.374700
v -0.146201 -2.127875 -0.352960
v -0.212251 -2.127875 -0.317655
v -0.270144 -2.127875 -0.270144
v -0.317655 -2.127875 -0.212251
v -0.352960 -2.127875 -0.146201
v -0.374700 -2.127875 -0.074533
v -0.382041 -2.127875 -0.000000
v -0.374700 -2.127875 0.074532
v -0.352960 -2.127875 0.146201
v -0.317655 -2.127875 0.212251
v -0.270144 -2.127875 0.270144
v -0.212251 -2.127875 0.317655
v -0.146201 -2.127875 0.352960
v -0.074533 -2.127875 0.374700
v -0.000000 -2.127875 0.382041
v 0.074532 -2.127875 0.374700
v 0.146201 -2.127875 0.352960
v 0.212251 -2.127875 0.317655
v 0.270144 -2.127875 0.270144
v 0.317655 -2.127875 0.212251
v 0.352960 -2.127875 0.146201
v 0.374700 -2.127875 0.074532
v 0.382041 -2.127875 -0.000000
v 0.374700 -2.127875 -0.074533
v 0.352960 -2.127875 -0.146201
v 0.317655 -2.127875 -0.212251
v 0.270144 -2.127875 -0.270144
v 0.212251 -2.127875 -0.317655
v 0.146201 -2.127875 -0.352960
v 0.074532 -2.127875 -0.374700
v -0.000000 -1.954970 -0.638851
v -0.124634 -1.954970 -0.626576
v -0.244478 -1.954970 -0.590222
v -0.354927 -1.954970 -0.531185
v -0.451736 -1.954970 -0.451736
v -0.531185 -1.954970 -0.354927
v -0.590222 -1.954970 -0.244478
v -0.626576 -1.954970 -0.124634
v -0.638851 -1.954970 -0.000000
v -0.626576 -1.954970 0.124634
v -0.590222 -1.954970 0.244478
v -0.531185 -1.954970 0.354927
v -0.451736 -1.954970 0.451736
v -0.354927 -1.954970 0.531185
v -0.244478 -1.954970 0.590222
v -0.124634 -1.954970 0.626576
v -0.000000 -1.954970 0.638851
v 0.124634 -1.954970 0.626576
v 0.244478 -1.954970 0.590222
v 0.354927 -1.954970 0.531185
v 0.451736 -1.954970 0.451736
v 0.531185 -1.954970 0.354927
v 0.590222 -1.954970 0.244478
v 0.626576 -1.954970 0.124634
v 0.638851 -1.954970 -0.000000
v 0.626576 -1.954970 -0.124634
v 0.590222 -1.954970 -0.244478
v 0.531185 -1.954970 -0.354927
v 0.451736 -1.954970 -0.451736
v 0.354927 -1.954970 -0.531185
v 0.244478 -1.954970 -0.590222
v 0.124634 -1.954970 -0.626576
v -0.000000 -1.710311 -0.638851
v -0.124634 -1.710311 -0.626576
v -0.244478 -1.710311 -0.590222
v -0.354927 -1.710311 -0.531185
v -0.451736 -1.710311 -0.451736
v -0.531185 -1.710311 -0.354927
v -0.590222 -1.710311 -0.244478
v -0.626576 -1.710311 -0.124634
v -0.638851 -1.710311 -0.000000
v -0.626576 -1.710311 0.124634
v -0.590222 -1.710311 0.244478
v -0.531185 -1.710311 0.354927
v -0.451736 -1.710311 0.451736
v -0.354927 -1.710311 0.531185
v -0.244478 -1.710311 0.590222
v -0.124634 -1.710311 0.626576
v -0.000000 -1.710311 0.638851
v 0.124634 -1.710311 0.626576
v 0.244478 -1.710311 0.590222
v 0.354927 -1.710311 0.531185
v 0.451736 -1.710311 0.451736
v 0.531185 -1.710311 0.354927
v 0.590222 -1.710311 0.244478
v 0.626576 -1.710311 0.124634
v 0.638851 -1.710311 -0.000000
v 0.626576 -1.710311 -0.124634
v 0.590222 -1.710311 -0.244478
v 0.531185 -1.710311 -0.354927
v 0.451736 -1.710311 -0.451736
v 0.354927 -1.710311 -0.531185
v 0.244478 -1.710311 -0.590222
v 0.124634 -1.710311 -0.626576
v -0.004051 -1.437962 -0.458443
v -0.091493 -1.437962 -0.449831
v -0.175575 -1.437962 -0.424325
v -0.253065 -1.437962 -0.382906
v -0.320986 -1.437962 -0.327165
v -0.376727 -1.437962 -0.259244
v -0.418146 -1.437962 -0.181754
v -0.443652 -1.437962 -0.097672
v -0.452264 -1.437962 -0.010230
v -0.443652 -1.437962 0.077212
v -0.418146 -1.437962 0.161293
v -0.376727 -1.437962 0.238784
v -0.320986 -1.437962 0.306704
v -0.253065 -1.437962 0.362445
v -0.175575 -1.437962 0.403864
v -0.091493 -1.437962 0.429370
v -0.004051 -1.437962 0.437983
v 0.083391 -1.437962 0.429370
v 0.167472 -1.437962 0.403864
v 0.244963 -1.437962 0.362445
v 0.312883 -1.437962 0.306704
v 0.368624 -1.437962 0.238784
v 0.410044 -1.437962 0.161293
v 0.435549 -1.437962 0.077212
v 0.444162 -1.437962 -0.010230
v 0.435549 -1.437962 -0.097672
v 0.410044 -1.437962 -0.181754
v 0.368624 -1.437962 -0.259244
v 0.312883 -1.437962 -0.327165
v 0.244963 -1.437962 -0.382906
v 0.167472 -1.437962 -0.424325
v 0.083391 -1.437962 -0.449831
vn -0.3135 0.8963 0.3135
vn -0.3686 0.8963 0.2463
vn 0.4096 0.8963 -0.1697
vn 0.4348 0.8963 -0.0865
vn -0.2463 0.8963 0.3686
vn 0.3686 0.8963 -0.2463
vn -0.1697 0.8963 0.4096
vn -0.0865 0.8963 -0.4348
vn -0.0000 0.8963 -0.4433
vn 0.3135 0.8963 -0.3135
vn -0.0865 0.8963 0.4348
vn -0.1697 0.8963 -0.4096
vn 0.2463 0.8963 -0.3686
vn -0.0000 0.8963 0.4433
vn -0.2463 0.8963 -0.3686
vn 0.1697 0.8963 -0.4096
vn 0.0865 0.8963 0.4348
vn -0.3135 0.8963 -0.3135
vn 0.0865 0.8963 -0.4348
vn 0.1697 0.8963 0.4096
vn -0.3686 0.8963 -0.2463
vn 0.2463 0.8963 0.3686
vn -0.4096 0.8963 -0.1697
vn 0.3135 0.8963 0.3135
vn -0.4348 0.8963 -0.0865
vn 0.3686 0.8963 0.2463
vn -0.4429 0.8955 -0.0436
vn 0.4096 0.8963 0.1697
vn -0.4348 0.8963 0.0865
vn -0.4429 0.8955 0.0436
vn 0.4348 0.8963 0.0865
vn -0.4096 0.8963 0.1697
vn 0.4433 0.8963 -0.0000
vn 0.5478 -0.8295 -0.1090
vn 0.5585 -0.8295 -0.0000
vn -0.3949 -0.8295 0.3949
vn -0.4644 -0.8295 0.3103
vn 0.5160 -0.8295 -0.2137
vn -0.3103 -0.8295 0.4644
vn 0.4644 -0.8295 -0.3103
vn -0.2137 -0.8295 0.5160
vn -0.1090 -0.8295 -0.5478
vn -0.0000 -0.8295 -0.5585
vn 0.3949 -0.8295 -0.3949
vn -0.1090 -0.8295 0.5478
vn -0.2137 -0.8295 -0.5160
vn 0.3103 -0.8295 -0.4644
vn -0.0000 -0.8295 0.5585
vn -0.3103 -0.8295 -0.4644
vn 0.2137 -0.8295 -0.5160
vn 0.1090 -0.8295 0.5478
vn -0.3949 -0.8295 -0.3949
vn 0.1090 -0.8295 -0.5478
vn 0.2137 -0.8295 0.5160
vn -0.4644 -0.8295 -0.3103
vn 0.3103 -0.8295 0.4644
vn -0.5160 -0.8295 -0.2137
vn 0.3949 -0.8295 0.3949
vn -0.5478 -0.8295 -0.1090
vn 0.4644 -0.8295 0.3103
vn -0.5585 -0.8295 -0.0000
vn 0.5160 -0.8295 0.2137
vn -0.5478 -0.8295 0.1090
vn 0.5478 -0.8295 0.1090
vn -0.5160 -0.8295 0.2137
vn -0.1951 -0.0000 -0.9808
vn -0.0000 -0.0000 -1.0000
vn 0.7071 -0.0000 -0.7071
vn 0.8315 -0.0000 -0.5556
vn -0.1951 -0.0000 0.9808
vn -0.3827 -0.0000 0.9239
vn -0.3827 -0.0000 -0.9239
vn 0.5556 -0.0000 -0.8315
vn -0.0000 -0.0000 1.0000
vn -0.5556 -0.0000 -0.8315
vn 0.3827 -0.0000 -0.9239
vn 0.1951 -0.0000 0.9808
vn -0.7071 -0.0000 -0.7071
vn 0.1951 -0.0000 -0.9808
vn 0.3827 -0.0000 0.9239
vn -0.8315 -0.0000 -0.5556
vn 0.5556 -0.0000 0.8315
vn -0.9239 -0.0000 -0.3827
vn 0.7071 -0.0000 0.7071
vn -0.9808 -0.0000 -0.1951
vn 0.8315 -0.0000 0.5556
vn -1.0000 -0.0000 -0.0000
vn 0.9239 -0.0000 0.3827
vn -0.9808 -0.0000 0.1951
vn 0.9808 -0.0000 0.1951
vn -0.9239 -0.0000 0.3827
vn 1.0000 -0.0000 -0.0000
vn -0.8315 -0.0000 0.5556
vn 0.9808 -0.0000 -0.1951
vn -0.7071 -0.0000 0.7071
vn 0.9239 -0.0000 -0.3827
vn -0.5556 -0.0000 0.8315
vn -0.5898 0.5525 -0.5889
vn -0.5889 0.5525 -0.5899
vn -0.4633 0.5511 -0.6940
vn -0.4639 0.5511 -0.6936
vn 0.1633 0.5544 -0.8161
vn 0.1614 0.5543 -0.8165
vn 0.3166 0.5571 -0.7677
vn 0.3188 0.5572 -0.7667
vn 0.3075 0.5950 0.7425
vn 0.3076 0.5950 0.7425
vn 0.1565 0.5947 0.7886
vn 0.1571 0.5947 0.7884
vn -0.6923 0.5548 -0.4615
vn -0.6912 0.5547 -0.4631
vn 0.0006 0.5523 -0.8337
vn -0.0007 0.5522 -0.8337
vn 0.4464 0.5946 0.6687
vn 0.4470 0.5946 0.6683
vn -0.7673 0.5577 -0.3165
vn -0.7664 0.5577 -0.3189
vn 0.5688 0.5933 0.5696
vn 0.5697 0.5933 0.5687
vn -0.8120 0.5612 -0.1601
vn -0.8115 0.5612 -0.1630
vn 0.6700 0.5913 0.4488
vn 0.6711 0.5913 0.4472
vn -0.8249 0.5652 0.0015
vn -0.8250 0.5651 -0.0017
vn 0.7464 0.5886 0.3104
vn 0.7474 0.5886 0.3082
vn -0.8059 0.5695 0.1619
vn -0.8066 0.5694 0.1586
vn 0.7949 0.5853 0.1595
vn 0.7955 0.5853 0.1567
vn -0.7560 0.5738 0.3149
vn -0.7574 0.5737 0.3118
vn 0.8135 0.5816 0.0015
vn 0.8135 0.5815 -0.0016
vn -0.6776 0.5781 0.4546
vn -0.6794 0.5780 0.4519
vn 0.8010 0.5775 -0.1577
vn 0.8004 0.5774 -0.1610
vn -0.5739 0.5822 0.5759
vn -0.5761 0.5821 0.5738
vn 0.7577 0.5731 -0.3121
vn 0.7565 0.5731 -0.3153
vn -0.4491 0.5859 0.6745
vn -0.4514 0.5858 0.6730
vn 0.6847 0.5688 -0.4556
vn 0.6829 0.5687 -0.4584
vn -0.3082 0.5891 0.7470
vn -0.3104 0.5891 0.7461
vn -0.1625 0.5510 -0.8185
vn -0.1631 0.5510 -0.8184
vn 0.5847 0.5646 -0.5826
vn 0.5825 0.5645 -0.5848
vn -0.1564 0.5917 0.7908
vn -0.1582 0.5917 0.7905
vn -0.3195 0.5506 -0.7712
vn -0.3194 0.5506 -0.7712
vn 0.4612 0.5606 -0.6878
vn 0.4588 0.5606 -0.6894
vn 0.0006 0.5936 0.8048
vn -0.0006 0.5936 0.8048
vn -0.0000 -1.0000 -0.0000
vt 0.000000 0.000000
s 1
usemtl Material
f 20/1/1 45/1/1 44/1/2 5/1/2
f 12/1/3 59/1/3 58/1/4 11/1/4
f 6/1/5 46/1/5 45/1/1 20/1/1
f 28/1/6 60/1/6 59/1/3 12/1/3
f 7/1/7 47/1/7 46/1/5 6/1/5
f 14/1/8 34/1/8 33/1/9 13/1/9
f 29/1/10 61/1/10 60/1/6 28/1/6
f 21/1/11 48/1/11 47/1/7 7/1/7
f 15/1/12 35/1/12 34/1/8 14/1/8
f 30/1/13 62/1/13 61/1/10 29/1/10
f 22/1/14 49/1/14 48/1/11 21/1/11
f 16/1/15 36/1/15 35/1/12 15/1/12
f 31/1/16 63/1/16 62/1/13 30/1/13
f 8/1/17 50/1/17 49/1/14 22/1/14
f 1/1/18 37/1/18 36/1/15 16/1/15
f 32/1/19 64/1/19 63/1/16 31/1/16
f 23/1/20 51/1/20 50/1/17 8/1/17
f 2/1/21 38/1/21 37/1/18 1/1/18
f 13/1/9 33/1/9 64/1/19 32/1/19
f 24/1/22 52/1/22 51/1/20 23/1/20
f 3/1/23 39/1/23 38/1/21 2/1/21
f 25/1/24 53/1/24 52/1/22 24/1/22
f 17/1/25 40/1/25 39/1/23 3/1/23
f 26/1/26 54/1/26 53/1/24 25/1/24
f 18/1/27 41/1/27 40/1/25 17/1/25
f 9/1/28 55/1/28 54/1/26 26/1/26
f 4/1/29 42/1/29 41/1/30 18/1/30
f 27/1/31 56/1/31 55/1/28 9/1/28
f 19/1/32 43/1/32 42/1/29 4/1/29
f 10/1/33 57/1/33 56/1/31 27/1/31
f 5/1/2 44/1/2 43/1/32 19/1/32
f 11/1/4 58/1/4 57/1/33 10/1/33
f 58/1/34 90/1/34 89/1/35 57/1/35
f 45/1/36 77/1/36 76/1/37 44/1/37
f 59/1/38 91/1/38 90/1/34 58/1/34
f 46/1/39 78/1/39 77/1/36 45/1/36
f 60/1/40 92/1/40 91/1/38 59/1/38
f 47/1/41 79/1/41 78/1/39 46/1/39
f 34/1/42 66/1/42 65/1/43 33/1/43
f 61/1/44 93/1/44 92/1/40 60/1/40
f 48/1/45 80/1/45 79/1/41 47/1/41
f 35/1/46 67/1/46 66/1/42 34/1/42
f 62/1/47 94/1/47 93/1/44 61/1/44
f 49/1/48 81/1/48 80/1/45 48/1/45
f 36/1/49 68/1/49 67/1/46 35/1/46
f 63/1/50 95/1/50 94/1/47 62/1/47
f 50/1/51 82/1/51 81/1/48 49/1/48
f 37/1/52 69/1/52 68/1/49 36/1/49
f 64/1/53 96/1/53 95/1/50 63/1/50
f 51/1/54 83/1/54 82/1/51 50/1/51
f 38/1/55 70/1/55 69/1/52 37/1/52
f 33/1/43 65/1/43 96/1/53 64/1/53
f 52/1/56 84/1/56 83/1/54 51/1/54
f 39/1/57 71/1/57 70/1/55 38/1/55
f 53/1/58 85/1/58 84/1/56 52/1/56
f 40/1/59 72/1/59 71/1/57 39/1/57
f 54/1/60 86/1/60 85/1/58 53/1/58
f 41/1/61 73/1/61 72/1/59 40/1/59
f 55/1/62 87/1/62 86/1/60 54/1/60
f 42/1/63 74/1/63 73/1/61 41/1/61
f 56/1/64 88/1/64 87/1/62 55/1/62
f 43/1/65 75/1/65 74/1/63 42/1/63
f 57/1/35 89/1/35 88/1/64 56/1/64
f 44/1/37 76/1/37 75/1/65 43/1/65
f 66/1/66 98/1/66 97/1/67 65/1/67
f 93/1/68 125/1/68 124/1/69 92/1/69
f 80/1/70 112/1/70 111/1/71 79/1/71
f 67/1/72 99/1/72 98/1/66 66/1/66
f 94/1/73 126/1/73 125/1/68 93/1/68
f 81/1/74 113/1/74 112/1/70 80/1/70
f 68/1/75 100/1/75 99/1/72 67/1/72
f 95/1/76 127/1/76 126/1/73 94/1/73
f 82/1/77 114/1/77 113/1/74 81/1/74
f 69/1/78 101/1/78 100/1/75 68/1/75
f 96/1/79 128/1/79 127/1/76 95/1/76
f 83/1/80 115/1/80 114/1/77 82/1/77
f 70/1/81 102/1/81 101/1/78 69/1/78
f 65/1/67 97/1/67 128/1/79 96/1/79
f 84/1/82 116/1/82 115/1/80 83/1/80
f 71/1/83 103/1/83 102/1/81 70/1/81
f 85/1/84 117/1/84 116/1/82 84/1/82
f 72/1/85 104/1/85 103/1/83 71/1/83
f 86/1/86 118/1/86 117/1/84 85/1/84
f 73/1/87 105/1/87 104/1/85 72/1/85
f 87/1/88 119/1/88 118/1/86 86/1/86
f 74/1/89 106/1/89 105/1/87 73/1/87
f 88/1/90 120/1/90 119/1/88 87/1/88
f 75/1/91 107/1/91 106/1/89 74/1/89
f 89/1/92 121/1/92 120/1/90 88/1/90
f 76/1/93 108/1/93 107/1/91 75/1/91
f 90/1/94 122/1/94 121/1/92 89/1/92
f 77/1/95 109/1/95 108/1/93 76/1/93
f 91/1/96 123/1/96 122/1/94 90/1/94
f 78/1/97 110/1/97 109/1/95 77/1/95
f 92/1/69 124/1/69 123/1/96 91/1/96
f 79/1/71 111/1/71 110/1/97 78/1/97
f 101/1/98 133/1/99 132/1/100 100/1/101
f 128/1/102 160/1/103 159/1/104 127/1/105
f 115/1/106 147/1/107 146/1/108 114/1/109
f 102/1/110 134/1/111 133/1/99 101/1/98
f 97/1/112 129/1/113 160/1/103 128/1/102
f 116/1/114 148/1/115 147/1/107 115/1/106
f 103/1/116 135/1/117 134/1/111 102/1/110
f 117/1/118 149/1/119 148/1/115 116/1/114
f 104/1/120 136/1/121 135/1/117 103/1/116
f 118/1/122 150/1/123 149/1/119 117/1/118
f 105/1/124 137/1/125 136/1/121 104/1/120
f 119/1/126 151/1/127 150/1/123 118/1/122
f 106/1/128 138/1/129 137/1/125 105/1/124
f 120/1/130 152/1/131 151/1/127 119/1/126
f 107/1/132 139/1/133 138/1/129 106/1/128
f 121/1/134 153/1/135 152/1/131 120/1/130
f 108/1/136 140/1/137 139/1/133 107/1/132
f 122/1/138 154/1/139 153/1/135 121/1/134
f 109/1/140 141/1/141 140/1/137 108/1/136
f 123/1/142 155/1/143 154/1/139 122/1/138
f 110/1/144 142/1/145 141/1/141 109/1/140
f 124/1/146 156/1/147 155/1/143 123/1/142
f 111/1/148 143/1/149 142/1/145 110/1/144
f 98/1/150 130/1/151 129/1/113 97/1/112
f 125/1/152 157/1/153 156/1/147 124/1/146
f 112/1/154 144/1/155 143/1/149 111/1/148
f 99/1/156 131/1/157 130/1/151 98/1/150
f 126/1/158 158/1/159 157/1/153 125/1/152
f 113/1/160 145/1/161 144/1/155 112/1/154
f 100/1/101 132/1/100 131/1/157 99/1/156
f 127/1/105 159/1/104 158/1/159 126/1/158
f 114/1/109 146/1/108 145/1/161 113/1/160
f 34/1/162 33/1/162 64/1/162 63/1/162 62/1/162 61/1/162 60/1/162 59/1/162 58/1/162 57/1/162 56/1/162 55/1/162 54/1/162 53/1/162 52/1/162 51/1/162 50/1/162 49/1/162 48/1/162 47/1/162 46/1/162 45/1/162 44/1/162 43/1/162 42/1/162 41/1/162 40/1/162 39/1/162 38/1/162 37/1/162 36/1/162 35/1/162
