# Blender 4.1.1
# www.blender.org
mtllib note.mtl.mtl
o Note
v 0.053135 -1.739309 -0.025271
v 0.121060 -0.273821 -0.016054
v 0.052772 -1.739566 0.018377
v 0.120696 -0.274078 0.027595
v -0.235376 -1.725922 -0.027595
v -0.167451 -0.260434 -0.018378
v -0.235739 -1.726179 0.016054
v -0.167814 -0.260691 0.025271
vn 0.5548 -0.6001 -0.5763
vn 0.6083 0.5534 -0.5690
vn 0.5452 -0.6069 0.5783
vn 0.5986 0.5466 0.5856
vn -0.5986 -0.5466 -0.5856
vn -0.5452 0.6069 -0.5783
vn -0.6082 -0.5534 0.5690
vn -0.5548 0.6001 0.5763
vt 0.954506 0.007222
vt 0.954506 0.373473
vt 0.943609 0.373473
vt 0.943609 0.007222
vt 0.000000 1.000000
vt 0.000000 0.000000
vt 1.000000 0.000000
vt 1.000000 1.000000
vt 0.966418 0.007222
vt 0.966418 0.373473
vt 0.955520 0.373473
vt 0.955520 0.007222
vt 0.987251 0.030651
vt 0.987251 0.293744
vt 0.935455 0.293744
vt 0.935455 0.030651
vt 0.967432 0.079327
vt 0.967432 0.007222
vt 0.978329 0.007222
vt 0.978329 0.079327
vt 0.978329 0.080342
vt 0.978329 0.152447
vt 0.967432 0.152447
vt 0.967432 0.080342
s 1
usemtl Material.002
f 1/1/1 2/2/2 4/3/4 3/4/3
f 3/5/3 4/6/4 8/7/8 7/8/7
f 7/9/7 8/10/8 6/11/6 5/12/5
f 5/13/5 6/14/6 2/15/2 1/16/1
f 3/17/3 7/18/7 5/19/5 1/20/1
f 8/21/8 4/22/4 2/23/2 6/24/6
